<svg version="1.2" xmlns="http://www.w3.org/2000/svg" viewBox="0 0 1443 1332" width="1443" height="1332">
	<style>
		.s0 { fill: #85e0ff } 
		.s1 { fill: #143680 } 
		.s2 { fill: #aaf7fd } 
	</style>
	<g id="Background">
		<path id="Path 0" class="s0" d="m44.48 291.5c0 56.1 0.12 78.82 0.27 50.5 0.15-28.32 0.15-74.23 0-102-0.15-27.78-0.27-4.6-0.27 51.5z"/>
		<path id="Path 1" class="s1" d="m152 74.75c0.01 0.41-3.48 1.3-7.75 1.98-4.26 0.68-11.35 2.39-15.75 3.8-4.4 1.41-11.83 4.45-16.5 6.76-4.67 2.31-12.27 6.91-16.87 10.21-4.61 3.3-12.05 9.83-16.53 14.5-4.49 4.67-10.84 12.55-14.11 17.5-3.27 4.95-7.63 12.82-9.7 17.5-2.06 4.68-4.95 13-6.44 18.5l-2.69 10c-1.27 237.15-1.51 450.67-1.36 627.5 0.25 302.95 0.37 321.99 2.04 330 0.97 4.67 2.9 11.88 4.28 16 1.39 4.13 4.2 10.88 6.26 15 2.06 4.13 6.14 11.1 9.08 15.5 2.94 4.4 9.44 12.09 14.44 17.09 5.01 5 12.93 11.58 17.6 14.63 4.67 3.04 11.31 6.94 14.75 8.66 3.44 1.72 10.19 4.45 15 6.07 4.81 1.62 14.15 3.88 20.75 5.02l12 2.08c1101.07-0.6 1131.45-0.71 1139.5-2.38 4.67-0.97 12.44-3.09 17.25-4.72 4.81-1.62 11.56-4.35 15-6.06 3.44-1.71 9.85-5.49 14.25-8.4 4.4-2.91 11.12-8.15 14.93-11.64 3.81-3.49 9.61-9.73 12.87-13.85 3.27-4.13 7.77-10.65 10.01-14.5 2.23-3.85 5.5-10.6 7.26-15 1.77-4.4 4.17-12.28 5.34-17.5 1.17-5.22 2.57-11.41 3.11-13.75 0.63-2.74 0.98-134 0.98-368.25 0-211.37-0.37-364.94-0.89-366.25-0.49-1.24-1.44-5.85-2.11-10.25-0.67-4.4-2.09-11.38-3.15-15.5-1.06-4.13-3.57-12.45-5.56-18.5-2-6.05-7.38-18.43-11.95-27.5-4.57-9.07-11.23-20.55-14.8-25.5-3.57-4.95-9.57-12.38-13.32-16.5-3.76-4.13-10.86-10.54-15.78-14.25-4.91-3.72-11.86-8.28-15.44-10.13-3.58-1.85-9.42-4.31-13-5.45-3.58-1.14-9.2-2.54-12.5-3.13-4.11-0.72-82.81-1.05-249.5-1.04-172.74 0.01-245.24-0.31-249.5-1.09-3.3-0.6-8.25-2.16-11-3.47-2.75-1.3-6.78-3.85-8.96-5.66-2.18-1.8-19.02-22.18-37.43-45.28-18.4-23.1-39.57-49.62-47.04-58.93-7.46-9.31-16.42-19.44-19.9-22.5-3.48-3.06-9.1-7.52-12.5-9.91-3.39-2.38-10-6.26-14.67-8.63-4.67-2.36-12.1-5.43-16.5-6.83-4.4-1.39-11.15-3.06-15-3.71-3.85-0.64-7.79-1.58-8.75-2.08-1.04-0.54-93.05-0.91-225.75-0.91-123.2 0-224 0.34-224 0.75z"/>
		<path id="Path 2" class="s2" d="m920 242.75c67.38 0.14 177.85 0.14 245.5 0 67.65-0.14 12.53-0.26-122.5-0.26-135.03 0-190.38 0.12-123 0.26z"/>
		<path id="Path 3" class="s0" d="m1251 321.75c0 0.96 0 167.69 0 370.5 0 244.72-0.34 370.35-1.01 373.5-0.59 2.77-2.36 6.38-4.25 8.64-1.78 2.15-4.93 4.73-6.99 5.75-3.64 1.81-20.11 1.86-560.25 1.86h-556.5c-0.02 24.41 0.44 33.97 1 37 0.57 3.03 2.11 7.75 3.42 10.5 1.32 2.75 4.62 7.47 7.34 10.5 2.71 3.03 7.59 6.95 10.84 8.72 3.24 1.77 9.05 3.9 12.9 4.73 6.21 1.34 70.08 1.52 564.5 1.53 357.38 0 559.65-0.34 563.5-0.97 3.3-0.53 9.15-2.51 13-4.39 4.86-2.37 8.64-5.2 12.38-9.27 2.95-3.22 6.22-7.54 7.25-9.6 1.03-2.06 2.54-6.56 3.36-10 1.29-5.47 1.48-50.97 1.51-362.75 0.02-318.47-0.15-357.46-1.54-365.5-0.86-4.95-2.9-13.05-4.54-18-1.64-4.95-5.32-13.73-8.18-19.5-2.87-5.77-7.18-13.2-9.6-16.5-2.41-3.3-5.79-7.52-7.51-9.38-1.72-1.86-5.16-4.68-7.63-6.26-4.42-2.84-4.74-2.89-18.75-2.87-12.9 0.01-14.25 0.18-14.25 1.76z"/>
		<path id="Path 4" class="s2" d="m156.5 153.45c-3.3 0.71-8.03 2.32-10.5 3.58-2.47 1.25-7.12 4.8-10.32 7.88-3.47 3.34-7 8-8.76 11.59-1.62 3.3-3.39 8.25-3.94 11-0.66 3.3-0.91 156.29-0.74 449.75l0.26 444.76c1096.14-0.01 1112.61-0.06 1116.25-1.87 2.06-1.02 5.21-3.6 7-5.75 2-2.41 3.63-5.8 4.26-8.89 0.68-3.35 0.93-127.36 0.75-375l-0.26-370c-418.36-0.95-470.99-1.34-474.5-2.32-2.48-0.68-8.1-2.41-12.5-3.84-4.4-1.43-12.5-4.9-18-7.71-5.5-2.81-12.7-7.11-16-9.55-3.3-2.44-8.65-6.94-11.89-10.01-3.24-3.06-18.11-20.87-33.05-39.57-14.94-18.7-35.93-45.02-46.65-58.5-10.71-13.47-21.04-25.69-22.94-27.14-1.91-1.45-5.72-3.77-8.47-5.15-2.75-1.38-7.7-3-11-3.61-4.28-0.79-67.14-1.09-219.5-1.03-170.42 0.07-214.71 0.35-219.5 1.38z"/>
		<path id="Path 5" class="s1" d="m871.5 946.68c-2.75 0.85-7.25 2.99-10 4.75-2.75 1.76-6.4 4.97-8.12 7.13-1.71 2.17-4.03 5.74-5.16 7.94-1.12 2.2-2.6 6.93-3.29 10.5-0.99 5.19-0.98 7.81 0.02 13 0.69 3.58 2.41 8.75 3.82 11.5 1.41 2.75 4.63 7.05 7.15 9.55 2.52 2.51 7.28 5.88 10.58 7.5l6 2.95h236c10.5-4.94 14.49-7.86 17.63-11.25 2.68-2.89 6.11-7.84 7.62-11 2.43-5.09 2.75-6.9 2.75-15.77 0-9.22-0.25-10.54-3.17-16.5-1.92-3.94-5.16-8.35-8.25-11.23-2.79-2.61-7.67-5.99-10.83-7.5l-5.75-2.75c-218.42-0.36-232.59-0.2-237 1.18z"/>
	</g>
</svg>